<?xml version="1.0" encoding="UTF-8"?>
<svg id="Layer_2" data-name="Layer 2" xmlns="http://www.w3.org/2000/svg" viewBox="0 0 395.16 436.92">
  <defs>
    <style>
      .cls-1 {
        fill: #121112;
        stroke-width: 0px;
      }
    </style>
  </defs>
  <g id="Layer_1-2" data-name="Layer 1">
    <g>
      <path class="cls-1" d="M363.11,292.07c-14.94-9.2-32.58-12.02-49.65-7.96-16.91,4.03-29.9,12.26-39.11,26.98l-1.36,2.42c-5.94,9.78-25.98,12.68-55.47,13.09-29.5.42-53.19-9.55-71.05-29.92-17.87-20.36-26.8-46.28-26.8-77.76s8.05-57.65,24.15-78.53c16.1-20.88,40.87-31.11,74.33-30.7,33.45.42,60.09,5.66,79.94,15.74,19.84,10.08,35.01,15.11,45.5,15.11s21.19-6.28,32.1-18.85c10.91-12.57,16.15-26.85,15.74-42.85-.42-16-15.85-33.14-46.28-51.42C314.71,9.15,270.35,0,212.07,0S103.88,20.21,62.33,60.61C20.77,101.03,0,153.75,0,218.77s20.88,117.65,62.64,157.85,93.91,60.3,156.45,60.3,107.52-8.73,134.94-26.18c17.11-10.89,28.89-23.4,35.32-37.52,12.19-29.29,1.62-64.01-26.24-81.15ZM334.66,371.55c-11.79,0-21.35-9.56-21.35-21.35s9.56-21.35,21.35-21.35,21.35,9.56,21.35,21.35-9.56,21.35-21.35,21.35Z"/>
      <path class="cls-1" d="M197.58,227.5c0,34.9,18.7,52.36,56.1,52.36h3.05c3.27,0,6.39-1.25,8.84-3.41,11.58-10.23,25.56-17.53,41.02-21.21,24.78-5.9,50.38-1.8,72.08,11.56,6.07,3.74,11.58,8.06,16.49,12.83v-104.48h-197.58v52.36Z"/>
    </g>
  </g>
</svg>