<?xml version="1.0" encoding="UTF-8"?>
<svg id="Layer_2" data-name="Layer 2" xmlns="http://www.w3.org/2000/svg" viewBox="0 0 626.62 618.62">
  <defs>
    <style>
      .cls-1 {
        fill: #dafd00;
        stroke-width: 0px;
      }
    </style>
  </defs>
  <g id="Layer_1-2" data-name="Layer 1">
    <path class="cls-1" d="M116.82,388.49c22.91-7.27,41.62-23.03,52.69-44.36,10.96-21.14,14.05-41.98,7.02-64.71l-1.3-3.57c-4.83-14.92,10.1-38.28,36.07-69.24,25.97-30.97,57.51-46.61,94.62-46.91,37.11-.31,71.98,13.62,104.62,41.79,32.64,28.17,52.59,59.94,59.83,95.33,7.25,35.38-4.32,70.23-34.69,104.55-30.37,34.31-59.65,57.25-87.86,68.81-28.21,11.55-47,22.77-56.39,33.66-9.39,10.88-12.45,27.6-9.17,50.16,3.27,22.56,13.39,40.78,30.35,54.67,16.96,13.88,48.54,13.22,94.74-1.97,46.2-15.21,95.38-53.02,147.53-113.46,52.16-60.44,75.87-130.29,71.15-209.54-4.72-79.26-40.8-147.99-108.23-206.18C450.35,19.33,377.11-6.1,298.04,1.23c-79.06,7.33-146.58,43.42-202.55,108.27C39.53,174.35,8.32,228.81,1.88,272.86c-4.02,27.49-1.59,50.9,7.3,70.21,19.47,38.85,64.93,58.96,107.63,45.42ZM59.86,287.86c10.55-12.23,29.02-13.58,41.24-3.03,12.23,10.55,13.58,29.02,3.03,41.24-10.55,12.23-29.02,13.58-41.24,3.03-12.23-10.55-13.58-29.02-3.03-41.24Z"/>
  </g>
</svg>