<?xml version="1.0" encoding="UTF-8"?>
<svg id="Layer_2" data-name="Layer 2" xmlns="http://www.w3.org/2000/svg" viewBox="0 0 451.13 457.52">
  <defs>
    <style>
      .cls-1 {
        fill: #dafd00;
        stroke-width: 0px;
      }
    </style>
  </defs>
  <g id="Layer_1-2" data-name="Layer 1">
    <path class="cls-1" d="M163.68,86.99c5.73,16.59,17.58,29.94,33.36,37.62,15.63,7.6,30.9,9.47,47.35,3.92l2.58-1.01c10.8-3.8,28.13,6.66,51.2,25.03,23.09,18.37,35.09,41.1,36,68.18.92,27.07-8.6,52.78-28.55,77.13-19.95,24.35-42.77,39.5-68.46,45.44-25.69,5.95-51.33-1.84-76.95-23.36-25.61-21.52-42.89-42.47-51.86-62.84-8.95-20.37-17.5-33.88-25.62-40.53s-20.37-8.57-36.78-5.76c-16.4,2.81-29.51,10.53-39.33,23.17-9.81,12.64-8.74,35.67,3.21,69.11,11.96,33.43,40.47,68.62,85.55,105.55,45.08,36.94,96.5,52.94,154.25,48.02,57.76-4.92,107.24-32.54,148.45-82.84,41.22-50.3,58.41-104.23,51.59-161.8-6.82-57.56-34.42-106.16-82.79-145.8C318.52,26.59,278.19,4.83,245.92.95c-20.14-2.42-37.17-.21-51.1,6.64-27.99,14.93-41.82,48.48-31.14,79.4ZM236.05,43.54c9.12,7.47,10.46,20.92,2.98,30.04s-20.92,10.46-30.04,2.98-10.46-20.92-2.98-30.04,20.92-10.46,30.04-2.98Z"/>
  </g>
</svg>